<?xml version="1.0" standalone="no"?>
<!DOCTYPE svg PUBLIC "-//W3C//DTD SVG 20010904//EN"
 "http://www.w3.org/TR/2001/REC-SVG-20010904/DTD/svg10.dtd">
<svg version="1.0" xmlns="http://www.w3.org/2000/svg"
 width="612.000000pt" height="612.000000pt" viewBox="0 0 612.000000 612.000000"
 preserveAspectRatio="xMidYMid meet">
<metadata>
Created by potrace 1.11, written by Peter Selinger 2001-2013
</metadata>
<g transform="translate(0.000000,612.000000) scale(0.100000,-0.100000)"
fill="#000000" stroke="none">
<path d="M2984 5566 c-112 -50 -122 -216 -18 -284 63 -41 158 -30 206 24 45
51 55 137 22 193 -38 65 -142 98 -210 67z m92 -65 c2 -45 21 -63 61 -59 30 4
33 2 33 -24 0 -42 -20 -75 -51 -89 -67 -27 -121 -3 -140 61 -14 45 -30 36 -23
-13 2 -21 0 -27 -7 -20 -17 17 -15 98 3 125 19 29 75 58 103 54 14 -2 20 -11
21 -35z"/>
<path d="M3483 5423 c-19 -7 -16 -50 4 -57 23 -9 47 17 38 43 -6 21 -18 24
-42 14z"/>
<path d="M2626 5154 c-20 -19 -20 -28 0 -45 19 -15 46 -2 50 24 4 26 -31 41
-50 21z"/>
<path d="M3397 5135 c-130 -46 -166 -208 -68 -306 55 -56 130 -72 199 -44 130
55 160 222 56 316 -52 48 -117 59 -187 34z m132 -54 c49 -27 78 -102 61 -158
-6 -22 -9 -23 -10 -8 -5 59 -20 87 -20 36 0 -71 -59 -127 -124 -118 -66 9
-101 45 -112 117 l-7 42 34 -6 c52 -8 83 20 82 73 l-1 41 39 -4 c21 -3 47 -10
58 -15z"/>
<path d="M2680 4905 c-75 -34 -122 -102 -126 -183 -11 -210 260 -298 376 -123
17 24 31 56 32 70 0 14 2 37 2 51 4 59 -39 133 -97 169 -47 29 -141 37 -187
16z m108 -44 c7 -1 11 -5 8 -9 -14 -22 -12 -60 3 -80 18 -25 77 -46 86 -31 4
5 11 9 17 9 17 0 4 -94 -18 -123 -22 -30 -71 -57 -105 -57 -46 0 -106 39 -129
83 l-21 42 5 -40 5 -40 -16 29 c-20 37 -19 89 2 135 21 48 92 93 135 85 8 -1
21 -3 28 -3z"/>
<path d="M3893 4833 c-31 -12 -6 -64 27 -56 26 7 32 29 14 48 -16 16 -21 17
-41 8z"/>
<path d="M3191 4652 c-8 -15 -7 -23 4 -32 23 -19 50 -8 50 20 0 32 -39 41 -54
12z"/>
<path d="M3678 4624 c-2 -1 -21 -5 -43 -8 -131 -17 -299 -74 -430 -146 -71
-39 -142 -66 -192 -74 -16 -2 -46 -7 -68 -11 -109 -16 -227 -8 -350 25 -246
67 -451 33 -563 -95 -54 -61 -70 -123 -59 -225 5 -45 15 -151 22 -225 9 -104
16 -174 20 -215 2 -25 7 -74 10 -110 6 -70 14 -144 20 -200 2 -19 7 -73 11
-120 3 -47 8 -93 9 -102 2 -9 6 -59 10 -110 5 -83 4 -90 -8 -68 -8 14 -73 117
-146 229 -73 112 -135 210 -138 218 -3 8 2 22 11 32 15 17 14 21 -14 60 -28
38 -30 46 -20 75 49 148 4 310 -119 425 -60 56 -215 135 -296 149 -75 14 -210
6 -268 -16 -62 -24 -157 -81 -157 -95 0 -4 4 -5 10 -2 5 3 31 8 57 11 27 3 54
7 61 9 31 10 6 -6 -51 -35 -121 -59 -218 -158 -262 -267 -13 -32 -22 -59 -20
-61 2 -3 15 9 29 24 33 38 33 15 0 -37 -101 -160 -125 -364 -59 -504 l23 -50
1 41 c1 57 12 104 23 104 5 0 7 -4 4 -9 -8 -13 30 -157 55 -207 22 -42 94
-124 110 -124 5 0 8 30 8 68 -2 87 6 139 39 239 31 99 37 100 40 6 2 -46 16
-57 28 -21 3 12 27 43 51 69 65 70 138 90 223 61 25 -8 75 -16 113 -16 63 -1
69 -3 98 -34 19 -21 38 -32 49 -29 11 3 25 -9 42 -37 14 -22 109 -171 211
-331 102 -159 184 -291 182 -294 -3 -2 -21 -5 -42 -7 -20 -1 -71 -5 -112 -10
-42 -4 -89 -8 -106 -10 -58 -5 -189 -19 -270 -30 -16 -2 -57 -6 -90 -9 -33 -3
-67 -7 -75 -10 -8 -2 -40 -7 -70 -10 -30 -3 -68 -8 -85 -11 -16 -4 -41 -8 -55
-9 -14 -2 -43 -6 -65 -10 -22 -3 -80 -13 -130 -21 -49 -8 -101 -16 -115 -19
-132 -23 -200 -35 -225 -40 -16 -3 -52 -10 -80 -15 -49 -9 -74 -14 -125 -25
-14 -3 -34 -7 -45 -9 -115 -23 -273 -61 -282 -69 -19 -14 -16 -45 6 -56 12 -7
30 -7 52 -1 19 6 47 13 62 15 16 3 66 14 111 25 45 10 93 21 106 23 14 3 97
19 185 36 88 17 174 32 190 35 74 12 95 16 180 30 50 8 108 17 130 20 22 3 85
12 140 20 116 17 186 26 235 32 37 4 204 23 255 29 17 2 62 7 100 10 39 3 93
8 120 11 69 6 142 12 410 29 379 24 1282 24 1508 0 23 -3 94 -7 157 -10 63 -4
134 -8 158 -10 69 -5 194 -16 227 -20 17 -2 59 -7 95 -10 79 -7 132 -13 185
-21 22 -3 54 -7 70 -9 44 -4 136 -15 166 -20 14 -3 43 -7 64 -10 48 -6 113
-15 145 -20 14 -3 57 -9 95 -15 39 -5 84 -13 100 -16 17 -3 39 -7 50 -9 22 -3
186 -32 225 -40 14 -3 48 -9 75 -15 28 -5 61 -12 75 -15 14 -3 36 -7 50 -10
14 -2 68 -14 120 -25 52 -11 106 -23 120 -26 14 -3 39 -8 55 -13 17 -4 37 -6
46 -4 21 5 30 38 15 56 -9 12 -134 44 -243 63 -15 3 -46 10 -68 16 -22 5 -49
11 -60 13 -11 1 -33 5 -50 8 -16 4 -41 9 -55 11 -14 3 -50 9 -80 15 -30 6 -71
13 -90 16 -19 3 -42 8 -50 10 -8 2 -31 7 -50 9 -19 3 -44 7 -55 9 -11 3 -42 8
-68 11 -27 4 -58 9 -70 12 -12 2 -39 6 -62 9 -22 3 -51 8 -65 10 -14 2 -45 7
-70 10 -25 3 -54 7 -65 9 -18 3 -82 11 -175 22 -19 2 -51 6 -70 9 -19 3 -57 7
-85 10 -27 3 -72 7 -100 11 -112 12 -257 25 -309 28 -17 1 -31 6 -31 12 0 6
34 63 75 127 41 64 81 127 88 139 7 13 44 70 81 128 38 58 91 140 117 183 35
57 54 77 69 77 12 0 35 15 51 34 28 31 34 34 84 31 30 -1 82 5 115 15 122 35
209 0 272 -107 26 -44 27 -45 35 -22 5 13 10 42 10 64 l1 40 22 -50 c34 -77
49 -152 49 -252 1 -51 4 -93 8 -93 20 0 87 74 112 123 30 61 56 147 56 191 0
16 3 26 7 22 8 -8 13 -28 18 -81 2 -22 4 -44 5 -50 1 -15 31 54 46 109 12 46
13 186 1 231 -22 83 -63 176 -99 228 -27 38 -18 44 15 11 68 -68 -9 98 -82
178 -52 56 -149 125 -206 146 l-30 10 35 1 c19 0 53 -4 75 -9 l40 -9 -34 29
c-100 85 -259 117 -415 85 -44 -9 -147 -53 -188 -80 -21 -14 -41 -25 -45 -25
-5 0 -32 -25 -60 -55 -114 -120 -155 -272 -108 -405 9 -24 12 -46 7 -49 -4 -3
-18 -21 -31 -39 -21 -30 -22 -34 -7 -56 14 -23 12 -28 -39 -107 -29 -46 -84
-133 -122 -192 -37 -60 -72 -114 -78 -120 -5 -7 -16 -24 -24 -39 -14 -28 -34
-39 -26 -15 4 12 13 111 21 222 2 33 6 74 8 90 3 17 8 66 12 110 3 44 8 96 9
115 2 19 7 68 10 109 4 40 9 80 10 90 2 9 4 22 4 29 1 6 8 12 16 12 45 0 120
63 149 125 46 97 59 272 30 395 -55 235 -248 376 -525 385 -49 1 -90 1 -91 -1z
m95 -98 c60 -10 147 -45 202 -81 52 -35 165 -149 165 -167 0 -4 4 -8 9 -8 25
0 -28 119 -77 173 -47 50 0 29 51 -24 79 -82 120 -190 120 -314 1 -181 -46
-295 -121 -297 -41 -1 -74 21 -150 101 -61 63 -63 65 -58 34 8 -45 23 -81 48
-116 l22 -31 -26 19 c-41 31 -67 77 -103 178 -18 53 -36 101 -40 107 -9 15
-73 42 -83 36 -4 -2 -36 -7 -72 -11 -36 -3 -72 -8 -80 -10 -8 -2 -64 -7 -125
-10 -60 -4 -126 -9 -145 -11 -45 -5 -470 -4 -535 1 -27 2 -88 6 -135 10 -47 3
-96 8 -110 10 -14 2 -52 7 -85 10 -33 4 -71 8 -85 10 -14 3 -56 9 -95 15 -38
6 -77 12 -85 14 -8 1 -41 6 -73 10 -86 12 -95 51 -25 112 77 68 167 94 307 89
88 -3 95 -4 171 -25 25 -7 54 -14 65 -16 11 -1 36 -5 56 -9 20 -3 57 -7 83 -9
26 -2 49 -6 52 -9 10 -9 -174 -47 -240 -50 -64 -2 -65 -2 -38 -17 20 -11 59
-15 152 -14 117 0 132 3 231 36 59 20 189 77 290 126 101 49 209 97 239 107
106 36 224 47 323 31z m-1650 -427 c31 -8 37 -14 38 -37 0 -15 4 -36 9 -47 6
-15 9 -9 9 27 l1 46 33 -5 c17 -3 37 -6 44 -7 19 -3 25 -13 29 -43 9 -91 16
-130 24 -143 12 -18 12 -19 15 90 3 93 3 92 13 86 4 -2 39 -8 77 -11 39 -4 72
-9 75 -11 2 -3 5 -17 6 -32 3 -56 4 -62 13 -62 4 0 8 8 8 18 0 76 -2 73 61 68
31 -2 69 -5 84 -5 19 -1 27 -6 26 -18 0 -10 2 -125 6 -255 l7 -238 -48 4 c-26
3 -62 5 -80 5 -31 1 -33 3 -39 51 -4 28 -11 50 -16 50 -5 0 -8 -6 -7 -12 1 -7
1 -28 0 -47 l-1 -34 -72 7 c-39 3 -73 8 -75 9 -1 2 -5 28 -8 58 -8 80 -26 162
-33 154 -4 -3 -7 -48 -8 -98 -2 -51 -3 -96 -3 -100 -1 -10 -71 -6 -93 5 -13 6
-18 21 -18 49 0 25 -4 38 -10 34 -6 -4 -10 -12 -9 -18 1 -7 1 -23 0 -37 -1
-24 -4 -26 -36 -22 -40 5 -47 12 -51 56 -6 83 -15 174 -18 201 -3 17 -7 64
-11 105 -3 41 -8 96 -11 123 -5 53 -1 56 69 36z m-743 -34 c119 -37 233 -112
282 -185 42 -62 40 -76 -4 -28 -42 46 -112 98 -130 98 -5 0 11 -24 36 -52 25
-29 46 -56 46 -61 0 -10 -29 6 -57 32 -12 12 -25 21 -29 21 -3 0 -17 9 -31 20
-35 28 -125 59 -186 65 l-52 5 65 -24 c131 -47 224 -111 279 -193 31 -46 26
-51 -14 -13 -42 41 -53 36 -21 -11 21 -32 39 -69 32 -69 -1 0 -18 14 -37 31
-86 77 -176 124 -258 132 -52 5 -42 -5 25 -27 92 -30 179 -95 241 -179 42 -57
37 -73 -8 -27 -32 32 -102 80 -116 80 -4 0 13 -21 38 -47 25 -27 52 -57 59
-68 14 -19 14 -19 -5 -4 -99 82 -288 130 -385 99 -18 -6 -7 -8 41 -9 115 -2
231 -48 315 -126 33 -30 26 -31 -26 -5 -56 29 -61 24 -15 -15 50 -43 33 -45
-37 -5 -156 90 -269 103 -355 41 -34 -25 -27 -33 11 -13 41 22 133 28 184 11
41 -13 165 -89 158 -96 -2 -3 -13 0 -24 6 -25 13 -32 14 -32 3 0 -5 11 -15 25
-22 42 -23 21 -22 -65 3 -66 19 -91 22 -128 15 -69 -12 -69 -23 1 -23 45 0 75
-7 110 -25 69 -35 67 -41 -7 -20 -35 10 -80 16 -99 15 -46 -5 -105 -35 -141
-74 -17 -17 -33 -31 -36 -31 -8 0 4 96 15 123 11 26 0 21 -42 -20 -47 -46 -86
-112 -103 -175 -16 -62 -27 -54 -23 19 2 50 1 54 -8 28 -5 -16 -12 -39 -15
-50 -7 -32 -6 -174 2 -187 5 -7 3 -8 -6 -3 -16 10 -56 102 -66 151 -5 22 -9
42 -10 47 -1 4 -2 44 -3 90 l-2 82 -24 -30 -25 -30 11 40 c5 22 14 49 18 60
29 71 30 74 17 69 -7 -3 -26 -30 -42 -60 -15 -29 -31 -54 -35 -54 -13 0 31
134 71 215 21 44 64 110 94 147 31 37 56 70 56 73 0 3 -23 -6 -51 -21 -28 -14
-53 -23 -55 -21 -3 2 27 34 65 69 81 75 186 134 285 160 38 10 71 20 74 23 7
7 -49 26 -88 30 -47 4 -48 5 -25 14 34 14 206 5 265 -14z m3627 12 c3 -3 -17
-9 -44 -13 -45 -6 -110 -32 -88 -34 125 -16 276 -91 372 -187 30 -30 53 -56
50 -59 -3 -3 -22 4 -43 15 -60 32 -72 25 -30 -16 35 -35 126 -163 126 -177 0
-3 9 -25 19 -49 20 -42 51 -152 51 -178 0 -8 -13 13 -28 46 -16 33 -37 67 -47
75 -17 14 -18 13 -11 -5 26 -65 46 -127 45 -142 0 -15 -2 -14 -9 3 -9 23 -30
41 -31 27 0 -4 -1 -44 -3 -88 -1 -44 -8 -100 -15 -125 -13 -52 -52 -140 -60
-140 -4 0 -5 33 -4 73 1 73 -11 165 -25 179 -4 4 -6 -13 -4 -36 6 -75 -2 -85
-22 -26 -21 66 -78 156 -119 190 l-30 24 7 -24 c4 -14 10 -48 12 -76 l5 -52
-44 43 c-70 67 -150 85 -241 55 -60 -19 -63 -6 -5 20 37 16 74 24 116 24 35 1
63 2 63 4 0 1 -12 7 -27 13 -41 16 -100 12 -173 -10 -83 -27 -87 -26 -53 5 15
14 21 24 13 21 -8 -2 -26 -8 -40 -12 -41 -12 101 77 149 93 52 18 142 12 192
-12 l34 -17 -28 25 c-38 35 -98 49 -173 41 -49 -5 -81 -17 -148 -56 -98 -56
-127 -63 -77 -19 42 38 37 46 -14 20 -49 -25 -53 -25 -29 1 42 47 164 111 234
123 14 3 52 5 85 6 46 2 54 4 35 10 -64 20 -192 3 -279 -37 -41 -19 -92 -53
-103 -68 -5 -7 -8 -6 -8 1 0 6 25 36 55 67 30 31 55 59 55 62 0 10 -92 -55
-134 -94 l-39 -36 23 42 c51 92 181 192 281 215 58 13 56 23 -4 19 -56 -3
-170 -59 -234 -115 -28 -26 -54 -46 -57 -46 -4 0 9 25 29 55 19 30 31 55 27
55 -4 0 -25 -17 -46 -37 l-39 -38 17 34 c52 100 209 207 329 225 36 5 25 14
-15 11 -83 -4 -164 -38 -255 -106 -29 -21 -55 -39 -58 -39 -9 0 31 55 66 90
17 16 25 30 19 30 -20 0 -97 -58 -134 -102 l-36 -42 12 34 c29 85 196 201 334
234 55 12 239 14 251 3z m-1245 -34 c8 -10 23 -44 33 -77 20 -62 82 -167 118
-197 12 -10 41 -27 64 -39 l43 -20 -6 -57 c-4 -32 -9 -61 -13 -65 -3 -3 -22
-8 -41 -10 -33 -3 -34 -2 -35 34 -1 39 -14 66 -16 32 -1 -27 -9 -67 -14 -72
-2 -2 -26 -6 -53 -9 l-48 -4 -1 96 c-1 87 -6 116 -17 104 -5 -5 -14 -58 -22
-134 -3 -33 -9 -63 -13 -67 -3 -3 -28 -9 -55 -13 -27 -3 -52 -8 -56 -10 -3 -2
-12 0 -19 4 -11 7 -15 22 -21 91 -3 28 -19 -24 -19 -62 -1 -36 -3 -38 -33 -39
-18 0 -56 -2 -84 -4 l-51 -3 3 62 c2 33 5 146 8 249 2 104 6 190 8 192 2 3 41
7 87 10 62 4 81 2 80 -7 -4 -32 2 -79 9 -74 4 2 9 22 10 43 4 46 8 51 52 55
19 2 47 4 61 6 15 1 32 -5 41 -15z m-891 -34 c4 -29 7 -52 8 -71 0 -12 4 -18
9 -14 8 9 9 14 11 59 l1 33 60 -1 c33 -1 62 -4 65 -7 3 -3 8 -43 11 -89 3 -46
6 -90 6 -96 1 -14 17 -18 19 -5 0 4 2 16 4 27 2 11 6 49 7 85 2 36 7 70 10 76
4 6 31 9 60 8 66 -2 68 -2 67 -11 -1 -5 -1 -26 0 -48 1 -51 19 -34 22 22 l3
41 63 4 c72 3 66 13 63 -107 -1 -38 -3 -141 -5 -229 -2 -87 -6 -161 -10 -164
-3 -3 -30 -7 -60 -8 -53 -2 -55 -2 -56 24 -1 15 -2 32 -4 37 -1 6 -3 19 -3 29
-1 11 -5 16 -8 13 -6 -6 -9 -25 -13 -90 -1 -16 -9 -18 -62 -15 l-62 3 -3 60
c-6 107 -15 157 -28 144 -4 -4 -14 -123 -15 -182 -1 -28 -1 -28 -63 -25 -68 3
-63 -3 -67 73 -2 44 -20 27 -23 -22 l-3 -48 -45 -1 c-78 0 -75 -8 -79 203 -2
103 -4 213 -5 243 -1 30 1 57 5 60 12 8 119 -1 120 -11z m-676 -510 c83 -12
157 -19 330 -33 351 -28 837 -25 1165 8 25 3 72 7 105 11 33 3 69 7 80 9 11 2
43 7 72 11 l52 7 -4 -57 c-2 -31 -5 -58 -7 -60 -4 -4 -61 -13 -134 -20 -32 -4
-72 -8 -89 -10 -16 -2 -73 -7 -125 -11 -93 -6 -118 -13 -107 -31 6 -9 50 -9
157 2 36 3 81 8 100 10 132 13 166 17 177 20 18 6 21 -5 14 -59 -7 -54 1 -50
-111 -62 -36 -3 -74 -8 -85 -10 -11 -2 -56 -6 -100 -10 -44 -3 -96 -7 -115 -9
-258 -27 -874 -22 -1150 10 -25 3 -72 7 -105 10 -192 16 -190 16 -192 80 -3
50 -1 53 18 50 11 -2 48 -7 82 -10 34 -4 79 -8 99 -10 20 -2 72 -7 115 -11 43
-3 94 -8 113 -9 220 -19 736 -23 753 -6 6 6 9 13 6 15 -2 2 -150 7 -329 10
-179 2 -354 7 -390 10 -36 3 -94 8 -130 11 -96 8 -238 22 -299 30 -19 2 -38
10 -43 17 -10 16 -11 108 0 108 4 0 39 -5 77 -11z m-461 -43 c20 -31 3 -44
-18 -14 -9 12 -16 26 -16 30 0 16 18 7 34 -16z m2659 -12 c-11 -17 -19 -22
-26 -15 -7 7 -5 17 8 31 24 27 39 15 18 -16z m44 -35 c-12 -20 -37 -26 -37 -9
0 6 5 19 12 30 9 14 16 16 25 9 9 -8 9 -15 0 -30z m-2733 8 c8 -13 8 -20 -3
-27 -11 -6 -18 -1 -28 17 -17 32 -16 35 3 31 9 -2 22 -11 28 -21z m-46 -31 c8
-19 8 -25 -2 -29 -15 -6 -39 29 -31 43 10 16 21 11 33 -14z m2826 16 c3 -5 -2
-19 -11 -31 -20 -30 -40 -13 -21 18 14 22 24 26 32 13z m-2874 -42 c11 -21 6
-40 -10 -40 -13 0 -32 39 -25 50 10 16 23 12 35 -10z m2926 5 c5 -17 -23 -46
-39 -40 -12 5 -12 11 -3 31 11 24 36 29 42 9z m-2631 -265 c137 -213 185 -296
185 -320 0 -7 -19 8 -42 33 -42 47 -67 62 -48 30 33 -59 87 -183 75 -173 -8 6
-49 59 -92 116 -106 141 -112 137 -32 -20 11 -21 18 -40 17 -42 -4 -3 -335
518 -344 540 -3 8 2 19 13 24 15 8 30 -6 97 -95 43 -57 80 -102 83 -100 4 4
-72 154 -105 206 -14 23 -13 26 8 43 22 18 23 18 35 -4 6 -13 74 -120 150
-238z m2438 103 c-36 -68 -62 -123 -60 -123 3 0 40 47 83 105 73 98 102 122
119 96 3 -6 -57 -108 -133 -228 -242 -380 -259 -404 -185 -260 49 93 54 107
43 107 -5 0 -11 -8 -14 -17 -3 -10 -16 -29 -28 -43 -13 -14 -50 -60 -82 -103
-32 -42 -61 -76 -62 -74 -2 2 16 44 41 93 24 49 45 95 45 102 0 7 -22 -11 -50
-40 l-49 -53 10 35 c6 19 53 100 104 180 51 80 126 197 166 261 71 114 73 117
94 101 l22 -16 -64 -123z m-2786 128 c7 -10 9 -22 6 -25 -7 -7 -43 23 -43 36
0 15 25 8 37 -11z m3023 5 c0 -16 -24 -38 -33 -30 -8 9 11 44 23 44 6 0 10 -6
10 -14z m-2353 -170 c1 -1 5 -24 8 -51 8 -59 22 -80 23 -33 1 85 -2 80 47 75
25 -2 47 -6 50 -8 2 -3 7 -47 10 -99 3 -52 7 -111 10 -130 4 -35 12 -121 20
-241 l5 -66 -53 -2 c-48 -2 -53 0 -55 21 -7 72 -22 90 -22 26 0 -43 -2 -46
-30 -51 -45 -10 -56 -1 -59 48 -1 24 -4 54 -6 67 -3 13 -7 61 -10 108 -3 47
-7 95 -9 106 -3 12 -7 64 -11 115 -4 52 -9 97 -11 101 -11 18 9 27 49 22 23
-4 43 -7 44 -8z m1739 -66 c-4 -41 -9 -95 -11 -120 -3 -25 -7 -72 -10 -105 -3
-33 -7 -89 -11 -125 -3 -35 -7 -83 -9 -105 -3 -37 -5 -40 -34 -41 -43 -1 -50
6 -53 50 -3 45 -17 59 -20 19 0 -15 -1 -35 -2 -43 -1 -11 -16 -16 -55 -18
l-53 -3 7 103 c17 254 33 426 40 438 2 4 24 7 48 9 l45 2 0 -52 c1 -84 11 -76
27 23 5 31 10 37 33 40 65 9 64 11 58 -72z m-1430 37 c2 -2 8 -52 13 -109 2
-19 17 -6 18 15 0 12 1 39 2 60 l1 39 72 -6 c40 -4 74 -8 76 -10 2 -2 5 -27 8
-55 3 -29 9 -62 14 -74 8 -21 9 -21 11 -2 1 11 3 25 4 30 2 6 3 31 4 57 l1 48
57 -3 c53 -2 57 -4 59 -27 5 -63 9 -78 16 -74 4 3 8 23 8 45 0 42 19 58 64 53
11 -1 30 -3 41 -3 20 -1 20 -8 20 -243 l0 -243 -56 -3 -56 -3 -1 36 c-1 20 -6
43 -11 53 -8 13 -11 9 -12 -23 -1 -22 -1 -46 0 -53 2 -10 -13 -12 -55 -10
l-57 3 -3 79 c-4 88 -12 136 -23 136 -8 0 -14 -61 -15 -157 0 -36 -5 -63 -11
-64 -83 -8 -135 -6 -136 4 -6 71 -9 89 -18 104 -8 14 -11 7 -12 -32 -1 -27 -1
-57 0 -67 2 -13 -9 -17 -54 -20 -43 -2 -55 0 -56 12 -1 8 -3 26 -4 40 -1 14
-5 68 -9 120 -4 52 -9 115 -11 140 -2 25 -7 84 -10 133 l-5 87 62 -5 c34 -3
63 -7 64 -8z m1159 -30 c-2 -23 -6 -82 -10 -132 -3 -49 -8 -113 -11 -141 -2
-28 -6 -86 -9 -129 -2 -42 -6 -79 -8 -81 -6 -6 -97 -8 -102 -2 -2 2 -6 30 -8
61 -4 55 -16 91 -18 51 -5 -111 -7 -114 -83 -110 -36 1 -68 4 -70 7 -3 2 -6
48 -7 100 -3 82 -14 158 -19 124 -1 -5 -3 -19 -6 -30 -2 -11 -7 -51 -10 -90
-10 -119 -5 -110 -60 -106 -27 1 -50 4 -51 5 -1 1 -3 21 -4 44 -3 49 -18 68
-20 25 -1 -15 -2 -32 -4 -38 -1 -5 -3 -16 -3 -22 -1 -9 -20 -13 -55 -13 l-54
0 0 240 c0 132 3 243 8 246 8 4 76 8 105 5 6 -1 11 -11 11 -23 -1 -85 16 -110
21 -31 2 26 5 49 7 53 2 4 27 7 54 9 53 2 59 -4 60 -61 1 -51 4 -69 12 -74 5
-3 9 -2 10 3 0 4 2 17 5 28 2 11 4 39 5 63 2 30 7 42 18 43 9 1 43 2 76 2 57
2 60 1 62 -23 4 -65 8 -90 15 -90 4 0 9 16 9 35 3 72 4 78 21 84 10 3 40 7 67
8 l49 3 -3 -43z"/>
<path d="M3402 3323 c4 -21 33 -25 33 -3 0 8 -8 16 -18 18 -14 3 -18 -1 -15
-15z"/>
<path d="M2243 4593 c-15 -5 -17 -49 -3 -58 20 -12 50 6 50 30 0 23 -23 36
-47 28z"/>
<path d="M2658 2395 c-2 -3 -70 -8 -149 -11 -79 -3 -169 -8 -199 -9 -30 -2
-63 -4 -72 -4 -15 -1 -14 -6 7 -37 14 -20 25 -44 26 -53 0 -9 2 -25 4 -36 6
-31 19 -318 19 -425 1 -80 -3 -101 -21 -133 l-22 -36 122 6 c67 3 177 7 244 7
l122 1 6 55 c3 30 8 74 11 98 2 23 0 42 -5 42 -5 0 -11 -3 -13 -7 -8 -20 -73
-64 -108 -73 -58 -16 -181 -20 -185 -6 -2 6 -6 55 -9 108 -3 68 -1 100 7 105
14 9 92 13 128 7 15 -3 36 -14 48 -26 12 -11 24 -18 26 -17 1 2 6 31 9 64 4
33 9 68 12 78 6 18 1 18 -63 13 -69 -6 -136 -9 -163 -7 -12 1 -15 17 -15 85 0
46 3 87 6 90 11 11 193 9 221 -3 15 -5 37 -20 48 -31 l21 -21 -5 48 c-10 105
-18 133 -36 133 -9 0 -19 -2 -22 -5z"/>
<path d="M2816 2367 c38 -45 49 -71 141 -330 82 -234 95 -290 78 -342 -6 -20
-2 -20 119 -21 123 0 126 1 119 21 -13 39 -4 100 31 194 19 53 57 161 86 241
57 162 71 193 108 233 l26 27 -40 1 c-21 0 -68 1 -104 1 l-65 2 -2 -45 c0 -24
-20 -98 -43 -164 -23 -66 -43 -124 -44 -130 -1 -5 -12 -41 -24 -80 -11 -38
-24 -87 -28 -108 -3 -21 -8 -36 -11 -33 -2 2 -11 33 -19 67 -8 35 -42 145 -76
244 -51 154 -59 185 -51 215 l9 35 -117 1 -118 0 25 -29z"/>
<path d="M3603 2378 c3 -7 12 -29 20 -48 15 -37 16 -84 3 -350 -11 -213 -18
-253 -52 -292 -14 -14 -14 -17 3 -21 10 -3 38 -6 63 -6 25 -1 73 -3 107 -5
l61 -3 -21 29 c-20 27 -22 42 -21 146 1 198 14 410 29 458 7 25 21 54 31 65 9
10 13 19 8 20 -5 0 -54 3 -109 5 -55 2 -106 6 -114 9 -8 3 -11 0 -8 -7z"/>
<path d="M4140 2329 c19 -35 6 -81 -81 -273 -116 -256 -145 -311 -185 -356
-20 -22 -35 -40 -33 -41 30 -6 57 -9 124 -14 l80 -6 1 43 c0 24 7 57 15 73 16
33 12 33 159 21 98 -8 108 -10 122 -24 11 -11 17 -103 7 -130 -3 -10 8 -15 36
-17 22 -1 74 -6 115 -10 73 -7 74 -7 59 11 -31 35 -77 150 -93 234 -5 21 -14
59 -31 130 -2 8 -18 67 -36 130 -34 125 -37 169 -12 206 15 23 14 24 -8 25
-13 0 -40 2 -59 4 -19 2 -70 6 -113 10 l-78 6 11 -22z m116 -195 c2 -22 16
-84 29 -138 14 -54 25 -105 25 -113 0 -10 -12 -12 -57 -7 -32 3 -73 7 -91 9
-18 1 -34 4 -36 6 -2 2 9 31 25 64 16 33 43 97 61 142 17 46 33 81 35 79 2 -2
6 -21 9 -42z"/>
<path d="M1788 2334 c-2 -1 -36 -4 -76 -7 -40 -3 -76 -8 -79 -11 -4 -3 -2 -6
4 -6 6 0 20 -16 32 -35 19 -33 27 -71 35 -165 2 -25 7 -72 10 -105 25 -247 26
-320 3 -364 -20 -41 -20 -41 -4 -36 6 2 48 6 92 9 125 10 229 19 245 22 8 1
40 3 70 3 46 1 56 4 56 19 3 64 5 159 5 171 -1 8 -10 3 -22 -13 -35 -45 -110
-76 -199 -83 -74 -5 -80 -5 -81 13 -2 54 -19 243 -24 274 -3 14 -7 75 -10 136
-4 95 -2 115 14 147 l19 37 -44 -2 c-24 0 -45 -2 -46 -4z"/>
<path d="M4616 2238 c-10 -40 -20 -82 -23 -93 -5 -19 -5 -19 14 -3 19 17 98
50 105 43 2 -2 23 -5 48 -8 l45 -4 -2 -39 c-1 -21 -4 -57 -7 -79 -3 -22 -8
-51 -10 -65 -1 -14 -7 -54 -11 -90 -5 -36 -9 -67 -10 -70 -1 -3 -5 -32 -10
-65 -11 -81 -31 -134 -62 -167 -18 -19 -22 -28 -12 -29 8 0 21 -2 29 -3 17 -3
105 -15 165 -23 21 -2 42 -6 46 -9 4 -2 -2 13 -13 34 -16 31 -18 51 -14 117 4
76 10 128 21 185 2 14 7 48 11 75 3 28 7 61 9 75 2 14 7 48 11 75 3 28 7 51 9
53 2 2 29 -1 62 -7 62 -12 101 -35 119 -70 15 -30 21 -18 23 54 1 33 3 72 5
86 2 14 -2 26 -8 26 -35 1 -171 15 -176 18 -3 1 -30 6 -61 9 -31 4 -65 8 -75
10 -11 2 -39 7 -64 10 -46 6 -74 11 -121 21 -25 6 -27 3 -43 -67z"/>
<path d="M1257 2274 c-1 -1 -20 -5 -42 -8 -22 -2 -66 -8 -97 -12 -32 -4 -58
-8 -58 -11 0 -2 11 -20 24 -41 21 -34 44 -112 44 -152 0 -8 2 -28 5 -45 3 -16
8 -50 12 -75 3 -25 8 -62 11 -83 3 -20 8 -49 10 -65 12 -85 12 -178 -2 -210
-8 -19 -13 -36 -12 -38 2 -1 26 2 53 6 53 8 115 17 193 25 26 3 58 8 72 10 14
3 52 7 85 11 33 3 62 8 65 9 3 2 4 47 2 100 l-3 98 -29 -35 c-43 -52 -86 -69
-231 -92 -25 -5 -36 -3 -36 6 0 15 -41 310 -48 353 -17 91 -17 171 -1 209 9
21 16 39 16 41 0 3 -30 2 -33 -1z"/>
<path d="M5287 2204 c-3 -3 0 -16 8 -28 15 -24 14 -106 -5 -196 -6 -30 -13
-69 -16 -86 -2 -17 -18 -95 -34 -174 -24 -121 -33 -148 -60 -181 -17 -21 -27
-39 -23 -39 4 0 40 -7 78 -14 39 -8 81 -17 95 -19 14 -3 52 -10 85 -16 33 -6
74 -14 90 -17 17 -2 46 -9 65 -14 19 -6 40 -10 47 -10 6 0 24 37 39 83 15 45
29 89 32 96 4 11 -3 9 -24 -5 -64 -44 -128 -53 -224 -33 -30 6 -61 11 -67 12
-7 0 -13 5 -13 11 2 27 38 207 43 213 4 3 35 0 69 -7 49 -10 70 -21 95 -46
l31 -33 28 75 c15 41 25 76 23 78 -2 2 -26 7 -54 10 -27 4 -57 8 -65 9 -8 2
-36 7 -62 11 l-48 8 6 35 c3 20 8 45 10 57 2 11 7 34 10 51 3 16 7 31 9 33 3
3 53 -5 141 -24 47 -9 91 -34 117 -65 l27 -33 1 35 c0 19 3 60 5 92 5 57 5 57
-23 58 -30 1 -47 3 -128 19 -81 16 -109 21 -130 24 -54 9 -148 28 -159 32 -6
2 -15 2 -19 -2z"/>
<path d="M670 2180 c-19 -4 -68 -13 -108 -20 l-73 -12 17 -26 c22 -34 22 -103
1 -232 -19 -112 -27 -164 -33 -205 -7 -56 -15 -99 -30 -170 -4 -16 -15 -47
-25 -67 -29 -56 -38 -54 113 -27 57 10 68 15 62 28 -11 25 -17 89 -10 115 6
24 20 31 92 42 21 3 67 11 101 18 34 7 66 10 72 7 18 -11 49 -93 45 -117 -5
-28 -4 -28 89 -9 40 8 82 16 94 18 35 5 36 13 5 39 -43 36 -85 99 -218 328
-106 183 -119 210 -119 253 0 52 -3 53 -75 37z m78 -361 l50 -87 -57 -11 c-31
-6 -75 -14 -97 -17 l-41 -5 14 78 c11 63 21 163 23 238 0 6 13 -17 29 -50 15
-33 51 -99 79 -146z"/>
<path d="M54 1770 c-54 -21 -70 -91 -31 -135 56 -65 157 -21 148 65 -6 57 -64
91 -117 70z"/>
<path d="M5982 1769 c-29 -11 -55 -65 -47 -98 21 -84 132 -92 165 -11 29 69
-44 136 -118 109z"/>
<path d="M2927 1514 c-1 -1 -110 -5 -242 -8 -132 -4 -265 -9 -295 -11 -30 -2
-100 -7 -155 -10 -55 -4 -120 -8 -145 -10 -74 -5 -214 -17 -232 -20 -9 -2 -54
-6 -100 -10 -45 -3 -90 -8 -98 -10 -8 -2 -42 -7 -75 -10 -33 -3 -71 -7 -83
-10 -13 -2 -50 -7 -83 -10 -33 -4 -70 -8 -82 -11 -12 -2 -39 -6 -62 -9 -22 -3
-78 -12 -125 -20 -78 -13 -109 -18 -195 -31 -69 -11 -203 -35 -245 -44 -25 -6
-58 -12 -75 -15 -36 -6 -321 -69 -387 -85 -50 -13 -64 -30 -48 -61 11 -20 30
-20 115 3 22 5 49 12 60 13 16 3 146 30 240 51 11 3 31 6 45 9 14 2 57 10 96
19 38 8 92 18 120 22 27 3 52 8 55 10 3 1 28 6 55 10 27 3 58 8 69 10 40 8
201 33 250 39 28 4 61 8 75 10 40 6 260 33 315 39 28 3 73 8 100 10 28 3 75 8
105 11 30 4 80 8 110 10 30 2 87 6 125 10 305 24 467 29 915 29 462 0 642 -7
1050 -39 61 -4 183 -16 225 -21 22 -2 63 -7 90 -9 28 -3 66 -8 85 -10 19 -3
59 -7 89 -11 30 -3 62 -7 70 -9 9 -1 41 -6 71 -10 69 -8 101 -13 170 -25 30
-5 71 -12 90 -14 19 -3 67 -10 105 -16 39 -7 79 -14 90 -15 11 -2 45 -8 75
-14 30 -6 66 -12 80 -15 14 -2 36 -7 50 -10 14 -3 36 -8 50 -10 14 -2 36 -7
50 -10 14 -3 36 -8 50 -10 14 -2 77 -16 140 -31 63 -14 126 -28 140 -31 14 -3
33 -7 43 -10 27 -8 59 24 47 47 -12 22 -34 30 -114 43 -21 3 -41 8 -45 11 -4
2 -18 6 -32 8 -13 3 -67 14 -119 25 -114 25 -148 32 -175 36 -11 2 -33 6 -50
9 -16 4 -43 9 -60 12 -16 3 -41 7 -55 10 -47 9 -135 25 -175 30 -22 3 -52 8
-67 11 -15 3 -39 7 -55 9 -15 2 -41 6 -58 9 -62 10 -111 17 -143 21 -18 2 -49
6 -70 9 -20 3 -73 10 -117 15 -44 6 -102 13 -130 16 -27 4 -72 8 -100 11 -27
2 -70 6 -95 8 -25 3 -74 7 -110 10 -36 3 -92 8 -125 11 -33 2 -91 7 -130 10
-151 13 -948 37 -958 29z"/>
<path d="M3041 1246 c-57 -14 -85 -50 -85 -110 -1 -84 61 -132 144 -112 l45
11 3 56 3 55 -46 0 c-40 -1 -45 -3 -45 -24 0 -19 4 -21 25 -16 21 5 25 3 22
-12 -5 -32 -16 -42 -43 -39 -36 4 -53 24 -60 72 -5 36 -2 46 20 68 28 28 36
29 84 16 31 -9 33 -8 30 11 -4 29 -42 38 -97 24z"/>
<path d="M2691 1242 c-6 -2 -9 -8 -5 -13 10 -16 12 -173 2 -191 -7 -16 -4 -18
26 -18 24 0 34 4 31 13 -7 21 -14 153 -7 137 4 -8 27 -45 50 -82 38 -59 48
-68 73 -68 29 0 29 1 23 41 -9 57 -11 129 -3 159 6 23 3 26 -22 28 l-28 2 4
-82 c3 -80 3 -82 -12 -53 -55 108 -90 141 -132 127z"/>
<path d="M3353 1237 c-25 -14 -33 -28 -33 -60 0 -21 8 -32 32 -45 52 -28 71
-51 57 -68 -13 -16 -69 -19 -69 -4 0 6 -7 10 -15 10 -8 0 -15 -9 -15 -20 0
-52 133 -46 146 6 11 42 -4 72 -45 94 -49 25 -59 39 -36 56 12 9 24 10 42 3
33 -12 33 -12 33 11 0 28 -57 38 -97 17z"/>
<path d="M2413 1233 c-7 -3 -10 -17 -7 -36 6 -51 12 -117 9 -117 -1 0 -23 33
-49 73 -40 63 -51 73 -74 71 -43 -2 -43 -3 -32 -23 5 -11 11 -61 11 -113 l2
-94 29 4 c22 3 28 8 23 21 -4 9 -9 43 -11 75 l-4 59 20 -26 c11 -14 20 -30 20
-36 0 -6 3 -11 8 -11 4 0 16 -16 26 -35 11 -19 23 -35 28 -36 50 -7 53 -4 49
36 -2 22 -5 72 -5 112 -1 72 -9 87 -43 76z"/>
<path d="M2545 1209 c4 -17 7 -69 7 -115 l1 -84 29 2 c26 2 28 5 23 33 -4 16
-7 67 -8 112 l-2 83 -28 0 c-27 0 -28 -2 -22 -31z"/>
<path d="M3535 1168 c1 -39 -1 -88 -5 -110 -4 -21 -4 -40 -1 -42 4 -3 35 -6
71 -7 62 -3 64 -2 71 25 7 23 5 27 -9 21 -9 -4 -33 -9 -52 -10 -35 -3 -35 -3
-32 35 4 40 10 42 55 25 12 -5 17 -2 17 9 0 26 -4 31 -25 32 -11 1 -26 2 -33
3 -8 1 -11 11 -9 29 4 28 11 30 69 18 22 -4 26 -2 25 14 -1 11 -6 20 -12 21
-5 1 -37 3 -71 5 l-61 3 2 -71z"/>
<path d="M3755 1163 c-1 -38 -4 -88 -7 -113 -7 -45 -6 -46 21 -48 26 -2 29 1
29 30 0 18 1 61 2 96 3 57 5 62 25 62 50 0 58 -62 9 -74 -14 -4 -24 -10 -22
-14 2 -4 14 -31 28 -59 20 -46 28 -53 52 -53 27 0 37 13 19 25 -6 3 -17 20
-26 38 -13 27 -14 33 -2 42 25 18 34 49 25 82 -9 36 -20 41 -98 48 l-55 5 0
-67z"/>
<path d="M2082 1212 c-18 -2 -30 -7 -27 -12 6 -9 -28 -157 -45 -197 -7 -17 -5
-22 10 -26 22 -6 34 2 38 28 5 25 2 23 45 28 35 4 55 -6 56 -28 0 -13 27 -19
48 -11 14 6 14 8 1 24 -18 21 -78 157 -78 176 0 19 -8 22 -48 18z m45 -138
c-2 -2 -14 -5 -28 -6 -15 -2 -23 2 -21 10 5 26 11 57 12 67 0 6 10 -8 20 -29
11 -22 19 -41 17 -42z"/>
<path d="M3972 1212 c-8 -2 -9 -9 -3 -20 14 -27 53 -177 49 -192 -2 -9 10 -15
35 -17 29 -3 37 -1 37 12 0 16 23 71 66 158 l23 47 -33 0 c-21 0 -33 -5 -33
-12 2 -18 -44 -138 -52 -138 -8 0 -35 115 -34 142 0 16 -31 28 -55 20z"/>
<path d="M1860 1192 c-62 -7 -71 -12 -61 -31 6 -10 12 -59 13 -110 l3 -91 70
6 c39 4 71 8 73 9 1 1 5 12 7 25 4 19 1 21 -18 15 -12 -4 -35 -8 -51 -9 -26
-1 -30 3 -33 33 -4 33 -4 33 31 29 32 -3 36 -1 36 18 0 19 -5 22 -37 21 -34
-2 -38 0 -38 23 0 23 4 25 43 25 37 0 42 3 40 20 -3 20 -20 24 -78 17z"/>
<path d="M4233 1110 c-1 -45 -6 -94 -11 -110 -8 -23 -7 -30 5 -34 40 -16 48
-8 49 47 0 48 8 122 16 157 2 10 -6 16 -27 18 l-30 3 -2 -81z"/>
<path d="M1593 1158 c-2 -5 -2 -12 2 -17 8 -14 17 -87 19 -151 l1 -56 43 6
c23 4 45 8 47 8 3 1 16 2 28 2 20 0 24 5 25 30 1 29 0 30 -21 15 -12 -8 -34
-15 -49 -15 -25 0 -28 4 -30 38 0 20 -2 42 -3 47 -2 6 -3 31 -4 56 -1 44 -3
47 -27 45 -14 0 -28 -4 -31 -8z"/>
<path d="M4403 1150 c-51 -34 -66 -113 -32 -168 23 -37 111 -61 145 -39 7 4
14 18 16 32 5 24 4 24 -12 10 -40 -36 -112 -7 -117 48 -6 78 52 124 113 88
l32 -19 -4 26 c-7 35 -6 34 -61 39 -37 3 -56 -1 -80 -17z"/>
<path d="M1412 1133 c-38 -18 -51 -39 -57 -88 -12 -90 62 -150 156 -125 33 9
38 14 37 40 l-1 29 -25 -19 c-49 -39 -107 -17 -118 46 -12 66 29 108 94 94 27
-6 32 -5 28 7 -3 8 -6 19 -6 24 0 15 -72 10 -108 -8z"/>
<path d="M4615 1106 c-1 -67 -15 -159 -27 -173 -8 -10 -3 -13 23 -14 35 -1 56
-4 95 -13 18 -5 24 0 33 24 6 20 7 28 0 24 -5 -3 -28 -7 -50 -8 l-40 -3 3 39
c2 39 17 48 48 28 9 -6 17 -5 22 3 15 23 8 33 -24 35 -40 3 -42 5 -34 38 6 21
11 25 29 20 68 -19 67 -19 67 3 0 12 -6 22 -12 22 -7 1 -22 3 -33 4 -11 2 -38
5 -60 8 l-40 5 0 -42z"/>
<path d="M3017 812 c-20 -36 -38 -53 -75 -72 -28 -14 -48 -28 -46 -32 3 -4 27
-19 54 -34 28 -15 53 -38 60 -53 6 -14 19 -37 29 -50 l19 -25 26 51 c20 40 37
58 76 79 27 15 50 30 50 33 0 3 -23 18 -50 34 -38 20 -56 38 -72 72 -12 25
-27 45 -33 45 -7 0 -24 -21 -38 -48z"/>
<path d="M2380 761 c-13 -22 -37 -45 -56 -55 -19 -8 -34 -19 -34 -24 0 -4 16
-16 36 -27 20 -11 44 -35 55 -57 11 -21 21 -38 24 -38 3 0 13 17 24 39 13 24
33 45 56 55 19 9 35 21 35 25 0 4 -16 16 -36 27 -21 11 -44 35 -55 57 -11 20
-21 37 -24 37 -2 0 -14 -17 -25 -39z"/>
<path d="M3681 765 c-11 -19 -36 -45 -56 -56 -19 -12 -35 -25 -35 -30 0 -5 15
-17 34 -26 19 -9 40 -28 47 -42 27 -53 31 -54 53 -14 12 21 38 47 59 58 20 11
37 23 37 26 0 3 -16 14 -36 25 -20 10 -45 34 -55 52 -24 47 -24 47 -48 7z"/>
</g>
</svg>
